# xmcd
#
# Track frame offsets: 
#        182
#        10920
#        24695
#        36312
#        48652
#        59737
#        70185
#        81522
#        90080
#        101755
#        112270
#        121607
#        131842
#        142025
#        151162
#        162305
#        172227
#        182832
#        194277
#        203852
#        217915
#        228602
#        237962
#
# Disc length: 3321 seconds
#
# Revision: 2
# Processed by: cddbd v1.5.2PL0 Copyright (c) Steve Scherf et al.
# Submitted via: ExactAudioCopy v1.1
#
DISCID=530cf717
DTITLE=The Rivingtons - The Liberty Years (EMI Legends)
DYEAR=1991
DGENRE=R&B
TTITLE0=Papa-Oom-Mow-Mow (stereo)
TTITLE1=Deep Water (mono)
TTITLE2=Kickapoo Joy Juice (stereo)
TTITLE3=My Reward (mono)
TTITLE4=Mama-Oom-Mow-Mow (The Bird) (stereo)
TTITLE5=Waiting (mono)
TTITLE6=Love Pill (stereo)
TTITLE7=Long Tall Sally (stereo)
TTITLE8=Unchain My Heart (stereo)
TTITLE9=You Are My Sunshine (stereo)
TTITLE10=Happy Jack (stereo)
TTITLE11=Slippin' And Slidin' (stereo)
TTITLE12=Old Time Love (stereo)
TTITLE13=Have Mercy, Mercy Baby (stereo)
TTITLE14=Standing In The Love Line (stereo)
TTITLE15=The Bird's The Word (mono)
TTITLE16=I'm Losing My Grip (mono)
TTITLE17=The Shaky Bird (Part 1) (mono)
TTITLE18=The Shaky Bird (Part 2) (mono)
TTITLE19=Cherry (mono)
TTITLE20=Little Sally Walker (mono)
TTITLE21=The Weejee Walk (mono)
TTITLE22=Fairy Tales (mono)
EXTD=YEAR: 1991
EXTT0=
EXTT1=
EXTT2=
EXTT3=
EXTT4=
EXTT5=
EXTT6=
EXTT7=
EXTT8=
EXTT9=
EXTT10=
EXTT11=
EXTT12=
EXTT13=
EXTT14=
EXTT15=
EXTT16=
EXTT17=
EXTT18=
EXTT19=
EXTT20=
EXTT21=
EXTT22=
PLAYORDER=
